<?xml version="1.0" encoding="UTF-8"?>
<!-- www.vectorico.com -->
<svg version="1.1" id="Tinder" xmlns="http://www.w3.org/2000/svg" xmlns:xlink="http://www.w3.org/1999/xlink" x="0px" y="0px" viewBox="0 0 64 64" style="enable-background:new 0 0 64 64;" xml:space="preserve">
<style type="text/css">
	.st0{fill:url(#_x3C_path_x3E__1_);}
</style>
<title>Tinder Logo</title>
<linearGradient id="_x3C_path_x3E__1_" gradientUnits="userSpaceOnUse" x1="2.723" y1="64.9124" x2="0.7855" y2="62.9749" gradientTransform="matrix(27 0 0 -32 -13 2081.0005)">
	<stop offset="0" style="stop-color:#FF7854"/>
	<stop offset="1" style="stop-color:#FD267D"/>
</linearGradient>
<path id="_x3C_path_x3E_" class="st0" d="M21.5,26c11.7-4.1,13.7-14.7,12.2-24.5c0-0.4,0.3-0.6,0.6-0.5  c11.2,5.5,23.8,17.6,23.8,35.7C58.2,50.7,47.5,63,32,63C15.5,63,5.8,51,5.8,36.8c0-8.3,5.8-16.9,12.1-20.5c0.3-0.2,0.7,0,0.7,0.4  c0.1,1.9,0.6,6.6,2.7,9.4C21.4,26,21.5,26,21.5,26z"/>
</svg>